<svg aria-hidden="true" style="position: absolute; width: 0; height: 0; overflow: hidden;" version="1.1" xmlns="http://www.w3.org/2000/svg" xmlns:xlink="http://www.w3.org/1999/xlink">
  <defs>
    <symbol id="icon-send" viewBox="0 0 24 24">
      <path d="M2.01 21 23 12 2.01 3 2 10l15 2-15 2z"></path>
    </symbol>
    <symbol id="icon-share" viewBox="0 0 24 24">
      <path d="M18 16.08c-.76 0-1.44.3-1.96.77L8.91 12.7c.05-.23.09-.46.09-.7s-.04-.47-.09-.7l7.05-4.11c.54.5 1.25.81 2.04.81 1.66 0 3-1.34 3-3s-1.34-3-3-3-3 1.34-3 3c0 .24.04.47.09.7L8.04 9.81C7.5 9.31 6.79 9 6 9c-1.66 0-3 1.34-3 3s1.34 3 3 3c.79 0 1.5-.31 2.04-.81l7.12 4.16c-.05.21-.08.43-.08.65 0 1.61 1.31 2.92 2.92 2.92 1.61 0 2.92-1.31 2.92-2.92s-1.31-2.92-2.92-2.92z"></path>
    </symbol>
    <symbol id="icon-zoomPlus" viewBox="0 0 24 24">
      <path d="m15 3 2.3 2.3-2.89 2.87 1.42 1.42L18.7 6.7 21 9V3h-6zM3 9l2.3-2.3 2.87 2.89 1.42-1.42L6.7 5.3 9 3H3v6zm6 12-2.3-2.3 2.89-2.87-1.42-1.42L5.3 17.3 3 15v6h6zm12-6-2.3 2.3-2.87-2.89-1.42 1.42 2.89 2.87L15 21h6v-6z"></path>
    </symbol>
    <symbol id="icon-zoomMinus" viewBox="0 0 24 24">
      <path d="M9 9V3H7v2.59L3.91 2.5 2.5 3.91 5.59 7H3v2h6zm12 0V7h-2.59l3.09-3.09-1.41-1.41L17 5.59V3h-2v6h6zM3 15v2h2.59L2.5 20.09l1.41 1.41L7 18.41V21h2v-6H3zm12 0v6h2v-2.59l3.09 3.09 1.41-1.41L18.41 17H21v-2h-6z"></path>
    </symbol>
    <symbol id="icon-wallet" viewBox="0 0 24 24">
      <path d="M21 18v1c0 1.1-.9 2-2 2H5c-1.11 0-2-.9-2-2V5c0-1.1.89-2 2-2h14c1.1 0 2 .9 2 2v1h-9c-1.11 0-2 .9-2 2v8c0 1.1.89 2 2 2h9zm-9-2h10V8H12v8zm4-2.5c-.83 0-1.5-.67-1.5-1.5s.67-1.5 1.5-1.5 1.5.67 1.5 1.5-.67 1.5-1.5 1.5z"></path>
    </symbol>
    <symbol id="icon-present" viewBox="0 0 24 24">
      <path d="M20 6h-2.18c.11-.31.18-.65.18-1 0-1.66-1.34-3-3-3-1.05 0-1.96.54-2.5 1.35l-.5.67-.5-.68C10.96 2.54 10.05 2 9 2 7.34 2 6 3.34 6 5c0 .35.07.69.18 1H4c-1.11 0-1.99.89-1.99 2L2 19c0 1.11.89 2 2 2h16c1.11 0 2-.89 2-2V8c0-1.11-.89-2-2-2zm-5-2c.55 0 1 .45 1 1s-.45 1-1 1-1-.45-1-1 .45-1 1-1zM9 4c.55 0 1 .45 1 1s-.45 1-1 1-1-.45-1-1 .45-1 1-1zm11 15H4v-2h16v2zm0-5H4V8h5.08L7 10.83 8.62 12 11 8.76l1-1.36 1 1.36L15.38 12 17 10.83 14.92 8H20v6z"></path>
    </symbol>
    <symbol id="icon-settings" viewBox="0 0 24 24">
      <path d="M19.14 12.94c.04-.3.06-.61.06-.94 0-.32-.02-.64-.07-.94l2.03-1.58c.18-.14.23-.41.12-.61l-1.92-3.32c-.12-.22-.37-.29-.59-.22l-2.39.96c-.5-.38-1.03-.7-1.62-.94l-.36-2.54c-.04-.24-.24-.41-.48-.41h-3.84c-.24 0-.43.17-.47.41l-.36 2.54c-.59.24-1.13.57-1.62.94l-2.39-.96c-.22-.08-.47 0-.59.22L2.74 8.87c-.12.21-.08.47.12.61l2.03 1.58c-.05.3-.09.63-.09.94s.02.64.07.94l-2.03 1.58c-.18.14-.23.41-.12.61l1.92 3.32c.12.22.37.29.59.22l2.39-.96c.5.38 1.03.7 1.62.94l.36 2.54c.05.24.24.41.48.41h3.84c.24 0 .44-.17.47-.41l.36-2.54c.59-.24 1.13-.56 1.62-.94l2.39.96c.22.08.47 0 .59-.22l1.92-3.32c.12-.22.07-.47-.12-.61l-2.01-1.58zM12 15.6c-1.98 0-3.6-1.62-3.6-3.6s1.62-3.6 3.6-3.6 3.6 1.62 3.6 3.6-1.62 3.6-3.6 3.6z"></path>
    </symbol>
    <symbol id="icon-tune" viewBox="0 0 24 24">
      <path d="M3 17v2h6v-2H3zM3 5v2h10V5H3zm10 16v-2h8v-2h-8v-2h-2v6h2zM7 9v2H3v2h4v2h2V9H7zm14 4v-2H11v2h10zm-6-4h2V7h4V5h-4V3h-2v6z"></path>
    </symbol>
    <symbol id="icon-copy" viewBox="0 0 24 24">
      <path d="M16 1H4c-1.1 0-2 .9-2 2v14h2V3h12V1zm3 4H8c-1.1 0-2 .9-2 2v14c0 1.1.9 2 2 2h11c1.1 0 2-.9 2-2V7c0-1.1-.9-2-2-2zm0 16H8V7h11v14z"></path>
    </symbol>
    <symbol id="icon-link" viewBox="0 0 24 24">
      <path d="M3.9 12c0-1.71 1.39-3.1 3.1-3.1h4V7H7c-2.76 0-5 2.24-5 5s2.24 5 5 5h4v-1.9H7c-1.71 0-3.1-1.39-3.1-3.1zM8 13h8v-2H8v2zm9-6h-4v1.9h4c1.71 0 3.1 1.39 3.1 3.1s-1.39 3.1-3.1 3.1h-4V17h4c2.76 0 5-2.24 5-5s-2.24-5-5-5z"></path>
    </symbol>
    <symbol id="icon-cardOk" viewBox="0 0 24 24">
      <path d="M20 4H4c-1.11 0-1.99.89-1.99 2L2 18c0 1.11.89 2 2 2h5v-2H4v-6h18V6c0-1.11-.89-2-2-2zm0 4H4V6h16v2zm-5.07 11.17-2.83-2.83-1.41 1.41L14.93 22 22 14.93l-1.41-1.41-5.66 5.65z"></path>
    </symbol>
    <symbol id="icon-statistics" viewBox="0 0 24 24">
      <path d="M4 9h4v11H4zm12 4h4v7h-4zm-6-9h4v16h-4z"></path>
    </symbol>
    <symbol id="icon-StackedLineChart" viewBox="0 0 24 24">
      <path d="m2 19.99 7.5-7.51 4 4 7.09-7.97L22 9.92l-8.5 9.56-4-4-6 6.01-1.5-1.5zm1.5-4.5 6-6.01 4 4L22 3.92l-1.41-1.41-7.09 7.97-4-4L2 13.99l1.5 1.5z"></path>
    </symbol>
    <symbol id="icon-assignmentError" viewBox="0 0 24 24">
      <path d="M19 3h-4.18C14.4 1.84 13.3 1 12 1c-1.3 0-2.4.84-2.82 2H5c-1.1 0-2 .9-2 2v14c0 1.1.9 2 2 2h14c1.1 0 2-.9 2-2V5c0-1.1-.9-2-2-2zm-6 15h-2v-2h2v2zm0-4h-2V8h2v6zm-1-9c-.55 0-1-.45-1-1s.45-1 1-1 1 .45 1 1-.45 1-1 1z"></path>
    </symbol>
    <symbol id="icon-assignmentOk" viewBox="0 0 24 24">
      <path d="M19 3h-4.18C14.4 1.84 13.3 1 12 1c-1.3 0-2.4.84-2.82 2H5c-1.1 0-2 .9-2 2v14c0 1.1.9 2 2 2h14c1.1 0 2-.9 2-2V5c0-1.1-.9-2-2-2zm-7 0c.55 0 1 .45 1 1s-.45 1-1 1-1-.45-1-1 .45-1 1-1zm-2 14-4-4 1.41-1.41L10 14.17l6.59-6.59L18 9l-8 8z"></path>
    </symbol>
    <symbol id="icon-assignmentIn" viewBox="0 0 24 24">
      <path d="M19 3h-4.18C14.4 1.84 13.3 1 12 1c-1.3 0-2.4.84-2.82 2H5c-1.1 0-2 .9-2 2v14c0 1.1.9 2 2 2h14c1.1 0 2-.9 2-2V5c0-1.1-.9-2-2-2zm-7 0c.55 0 1 .45 1 1s-.45 1-1 1-1-.45-1-1 .45-1 1-1zm0 15-5-5h3V9h4v4h3l-5 5z"></path>
    </symbol>
    <symbol id="icon-assignmentBack" viewBox="0 0 24 24">
      <path d="M17 12h-3V8h-4v4H7l5 5zm2-9h-4.18C14.4 1.84 13.3 1 12 1c-1.3 0-2.4.84-2.82 2H5c-.14 0-.27.01-.4.04-.39.08-.74.28-1.01.55-.18.18-.33.4-.43.64-.1.23-.16.49-.16.77v14c0 .27.06.54.16.78s.25.45.43.64c.27.27.62.47 1.01.55.13.02.26.03.4.03h14c1.1 0 2-.9 2-2V5c0-1.1-.9-2-2-2zm-7-.25c.41 0 .75.34.75.75s-.34.75-.75.75-.75-.34-.75-.75.34-.75.75-.75zM19 19H5V5h14v14z"></path>
    </symbol>
    <symbol id="icon-assignment" viewBox="0 0 24 24">
      <path d="M19 3h-4.18C14.4 1.84 13.3 1 12 1c-1.3 0-2.4.84-2.82 2H5c-1.1 0-2 .9-2 2v14c0 1.1.9 2 2 2h14c1.1 0 2-.9 2-2V5c0-1.1-.9-2-2-2zm-7 0c.55 0 1 .45 1 1s-.45 1-1 1-1-.45-1-1 .45-1 1-1zm2 14H7v-2h7v2zm3-4H7v-2h10v2zm0-4H7V7h10v2z"></path>
    </symbol>
    <symbol id="icon-assignmentOutlined" viewBox="0 0 24 24">
      <path d="M7 15h7v2H7zm0-4h10v2H7zm0-4h10v2H7zm12-4h-4.18C14.4 1.84 13.3 1 12 1c-1.3 0-2.4.84-2.82 2H5c-.14 0-.27.01-.4.04-.39.08-.74.28-1.01.55-.18.18-.33.4-.43.64-.1.23-.16.49-.16.77v14c0 .27.06.54.16.78s.25.45.43.64c.27.27.62.47 1.01.55.13.02.26.03.4.03h14c1.1 0 2-.9 2-2V5c0-1.1-.9-2-2-2zm-7-.25c.41 0 .75.34.75.75s-.34.75-.75.75-.75-.34-.75-.75.34-.75.75-.75zM19 19H5V5h14v14z"></path>
    </symbol>
    <symbol id="icon-assignmentErrorOutlined" viewBox="0 0 24 24">
      <path d="M11 15h2v2h-2zm0-8h2v6h-2zm8-4h-4.18C14.4 1.84 13.3 1 12 1c-1.3 0-2.4.84-2.82 2H5c-.14 0-.27.01-.4.04-.39.08-.74.28-1.01.55-.18.18-.33.4-.43.64-.1.23-.16.49-.16.77v14c0 .27.06.54.16.78s.25.45.43.64c.27.27.62.47 1.01.55.13.02.26.03.4.03h14c1.1 0 2-.9 2-2V5c0-1.1-.9-2-2-2zm-7-.25c.41 0 .75.34.75.75s-.34.75-.75.75-.75-.34-.75-.75.34-.75.75-.75zM19 19H5V5h14v14z"></path>
    </symbol>
    <symbol id="icon-assignmentOkOutlined" viewBox="0 0 24 24">
      <path d="m18 9-1.41-1.42L10 14.17l-2.59-2.58L6 13l4 4zm1-6h-4.18C14.4 1.84 13.3 1 12 1c-1.3 0-2.4.84-2.82 2H5c-.14 0-.27.01-.4.04-.39.08-.74.28-1.01.55-.18.18-.33.4-.43.64-.1.23-.16.49-.16.77v14c0 .27.06.54.16.78s.25.45.43.64c.27.27.62.47 1.01.55.13.02.26.03.4.03h14c1.1 0 2-.9 2-2V5c0-1.1-.9-2-2-2zm-7-.25c.41 0 .75.34.75.75s-.34.75-.75.75-.75-.34-.75-.75.34-.75.75-.75zM19 19H5V5h14v14z"></path>
    </symbol>
    <symbol id="icon-assignmentInOutlined" viewBox="0 0 24 24">
      <path d="M17 12h-3V8h-4v4H7l5 5zm2-9h-4.18C14.4 1.84 13.3 1 12 1c-1.3 0-2.4.84-2.82 2H5c-.14 0-.27.01-.4.04-.39.08-.74.28-1.01.55-.18.18-.33.4-.43.64-.1.23-.16.49-.16.77v14c0 .27.06.54.16.78s.25.45.43.64c.27.27.62.47 1.01.55.13.02.26.03.4.03h14c1.1 0 2-.9 2-2V5c0-1.1-.9-2-2-2zm-7-.25c.41 0 .75.34.75.75s-.34.75-.75.75-.75-.34-.75-.75.34-.75.75-.75zM19 19H5V5h14v14z"></path>
    </symbol>
    <symbol id="icon-assignmentBackOutlined" viewBox="0 0 24 24">
      <path d="M12 14h4v-4h-4V7l-5 5 5 5zm7-11h-4.18C14.4 1.84 13.3 1 12 1c-1.3 0-2.4.84-2.82 2H5c-.14 0-.27.01-.4.04-.39.08-.74.28-1.01.55-.18.18-.33.4-.43.64-.1.23-.16.49-.16.77v14c0 .27.06.54.16.78s.25.45.43.64c.27.27.62.47 1.01.55.13.02.26.03.4.03h14c1.1 0 2-.9 2-2V5c0-1.1-.9-2-2-2zm-7-.25c.41 0 .75.34.75.75s-.34.75-.75.75-.75-.34-.75-.75.34-.75.75-.75zM19 19H5V5h14v14z"></path>
    </symbol>
    <symbol id="icon-assignmentPersonOutlined" viewBox="0 0 24 24">
      <path d="M19 3h-4.18C14.4 1.84 13.3 1 12 1s-2.4.84-2.82 2H5c-1.1 0-2 .9-2 2v14c0 1.1.9 2 2 2h14c1.1 0 2-.9 2-2V5c0-1.1-.9-2-2-2zm-7-.25c.22 0 .41.1.55.25.12.13.2.31.2.5 0 .41-.34.75-.75.75s-.75-.34-.75-.75c0-.19.08-.37.2-.5.14-.15.33-.25.55-.25zM19 19H5V5h14v14zM12 6c-1.65 0-3 1.35-3 3s1.35 3 3 3 3-1.35 3-3-1.35-3-3-3zm0 4c-.55 0-1-.45-1-1s.45-1 1-1 1 .45 1 1-.45 1-1 1zm-6 6.47V18h12v-1.53c0-2.5-3.97-3.58-6-3.58s-6 1.07-6 3.58zM8.31 16c.69-.56 2.38-1.12 3.69-1.12s3.01.56 3.69 1.12H8.31z"></path>
    </symbol>
    <symbol id="icon-partners" viewBox="0 0 24 24">
      <path d="M16.48 10.41c-.39.39-1.04.39-1.43 0l-4.47-4.46-7.05 7.04-.66-.63c-1.17-1.17-1.17-3.07 0-4.24l4.24-4.24c1.17-1.17 3.07-1.17 4.24 0L16.48 9c.39.39.39 1.02 0 1.41zm.7-2.12c.78.78.78 2.05 0 2.83-1.27 1.27-2.61.22-2.83 0l-3.76-3.76-5.57 5.57c-.39.39-.39 1.02 0 1.41.39.39 1.02.39 1.42 0l4.62-4.62.71.71-4.62 4.62c-.39.39-.39 1.02 0 1.41.39.39 1.02.39 1.42 0l4.62-4.62.71.71-4.62 4.62c-.39.39-.39 1.02 0 1.41.39.39 1.02.39 1.41 0l4.62-4.62.71.71-4.62 4.62c-.39.39-.39 1.02 0 1.41.39.39 1.02.39 1.41 0l8.32-8.34c1.17-1.17 1.17-3.07 0-4.24l-4.24-4.24c-1.15-1.15-3.01-1.17-4.18-.06l4.47 4.47z"></path>
    </symbol>
    <symbol id="icon-minus2" viewBox="0 0 320 32">
      <path fill="#fff" style="fill: var(--color1, #fff)" d="M0 0h320v32h-320v-32z"></path>
    </symbol>
    <symbol id="icon-calendar" viewBox="0 0 32 32">
      <path  d="M12 14.667h-2.667v2.667h2.667v-2.667zM17.333 14.667h-2.667v2.667h2.667v-2.667zM22.667 14.667h-2.667v2.667h2.667v-2.667zM25.333 5.333h-1.333v-2.667h-2.667v2.667h-10.667v-2.667h-2.667v2.667h-1.333c-1.48 0-2.653 1.2-2.653 2.667l-0.013 18.667c0 1.467 1.187 2.667 2.667 2.667h18.667c1.467 0 2.667-1.2 2.667-2.667v-18.667c0-1.467-1.2-2.667-2.667-2.667zM25.333 26.667h-18.667v-14.667h18.667v14.667z"></path>
    </symbol>
    <symbol id="icon-close" viewBox="0 0 24 24">
      <path d="M19 6.41 17.59 5 12 10.59 6.41 5 5 6.41 10.59 12 5 17.59 6.41 19 12 13.41 17.59 19 19 17.59 13.41 12z"></path>
    </symbol>
    <symbol id="icon-transactions" viewBox="0 0 24 24">
      <path d="M4 10h3v7H4zm6.5 0h3v7h-3zM2 19h20v3H2zm15-9h3v7h-3zm-5-9L2 6v2h20V6z"></path>
    </symbol>
    <symbol id="icon-minus" viewBox="0 0 24 24">
      <path d="M5 13h14c0.552 0 1-0.448 1-1s-0.448-1-1-1h-14c-0.552 0-1 0.448-1 1s0.448 1 1 1z"></path>
    </symbol>
    <symbol id="icon-plus" viewBox="0 0 24 24">
      <path d="M5 13h6v6c0 0.552 0.448 1 1 1s1-0.448 1-1v-6h6c0.552 0 1-0.448 1-1s-0.448-1-1-1h-6v-6c0-0.552-0.448-1-1-1s-1 0.448-1 1v6h-6c-0.552 0-1 0.448-1 1s0.448 1 1 1z"></path>
    </symbol>
    <symbol id="icon-transfer" viewBox="0 0 24 24">
      <path d="m18 12 4-4-4-4v3H3v2h15zM6 12l-4 4 4 4v-3h15v-2H6z"></path>
      <!-- <path d="M6.99 11 3 15l3.99 4v-3H14v-2H6.99v-3zM21 9l-3.99-4v3H10v2h7.01v3L21 9z"></path> -->
    </symbol>
    <symbol id="icon-cashFlow" viewBox="0 0 24 24">
      <path d="M12.89 11.1c-1.78-.59-2.64-.96-2.64-1.9 0-1.02 1.11-1.39 1.81-1.39 1.31 0 1.79.99 1.9 1.34l1.58-.67c-.15-.45-.82-1.92-2.54-2.24V5h-2v1.26c-2.48.56-2.49 2.86-2.49 2.96 0 2.27 2.25 2.91 3.35 3.31 1.58.56 2.28 1.07 2.28 2.03 0 1.13-1.05 1.61-1.98 1.61-1.82 0-2.34-1.87-2.4-2.09l-1.66.67c.63 2.19 2.28 2.78 2.9 2.96V19h2v-1.24c.4-.09 2.9-.59 2.9-3.22 0-1.39-.61-2.61-3.01-3.44zM3 21H1v-6h6v2H4.52c1.61 2.41 4.36 4 7.48 4 4.97 0 9-4.03 9-9h2c0 6.08-4.92 11-11 11-3.72 0-7.01-1.85-9-4.67V21zm-2-9C1 5.92 5.92 1 12 1c3.72 0 7.01 1.85 9 4.67V3h2v6h-6V7h2.48C17.87 4.59 15.12 3 12 3c-4.97 0-9 4.03-9 9H1z"></path>
    </symbol>
    <symbol id="icon-arrowDown" viewBox="0 0 129 129">
      <path d="m121.3,34.6c-1.6-1.6-4.2-1.6-5.8,0l-51,51.1-51.1-51.1c-1.6-1.6-4.2-1.6-5.8,0-1.6,1.6-1.6,4.2 0,5.8l53.9,53.9c0.8,0.8 1.8,1.2 2.9,1.2 1,0 2.1-0.4 2.9-1.2l53.9-53.9c1.7-1.6 1.7-4.2 0.1-5.8z"/>
    </symbol>
    <symbol id="icon-arrowRight" viewBox="0 0 24 24">
      <path d="M6.23 20.23 8 22l10-10L8 2 6.23 3.77 14.46 12z"></path>
    </symbol>
    <symbol id="icon-arrowLeft" viewBox="0 0 24 24">
      <path d="M11.67 3.87 9.9 2.1 0 12l9.9 9.9 1.77-1.77L3.54 12z"></path>
    </symbol>
    <symbol id="icon-SmallArrowDown" viewBox="0 0 24 24">
      <path d="M7.41 8.59 12 13.17l4.59-4.58L18 10l-6 6-6-6 1.41-1.41z"></path>
    </symbol>
    <symbol id="icon-SmallArrowUp" viewBox="0 0 24 24">
      <path d="M7.41 15.41 12 10.83l4.59 4.58L18 14l-6-6-6 6z"></path>
    </symbol>
    <symbol id="icon-SmallArrowLeft" viewBox="0 0 24 24">
      <path d="M15.41 16.59 10.83 12l4.58-4.59L14 6l-6 6 6 6 1.41-1.41z"></path>
    </symbol>
    <symbol id="icon-SmallArrowRight" viewBox="0 0 24 24">
      <path d="M8.59 16.59 13.17 12 8.59 7.41 10 6l6 6-6 6-1.41-1.41z"></path>
    </symbol>
    <symbol id="icon-home" viewBox="0 0 24 24">
      <path d="M10 20v-6h4v6h5v-8h3L12 3 2 12h3v8z"></path>
    </symbol>
    <symbol id="icon-persons" viewBox="0 0 24 24">
      <path d="M16.5 12c1.38 0 2.49-1.12 2.49-2.5S17.88 7 16.5 7C15.12 7 14 8.12 14 9.5s1.12 2.5 2.5 2.5zM9 11c1.66 0 2.99-1.34 2.99-3S10.66 5 9 5C7.34 5 6 6.34 6 8s1.34 3 3 3zm7.5 3c-1.83 0-5.5.92-5.5 2.75V19h11v-2.25c0-1.83-3.67-2.75-5.5-2.75zM9 13c-2.33 0-7 1.17-7 3.5V19h7v-2.25c0-.85.33-2.34 2.37-3.47C10.5 13.1 9.66 13 9 13z"></path>
    </symbol>
    <symbol id="icon-person" viewBox="0 0 24 24">
      <path d="M12 2C6.48 2 2 6.48 2 12s4.48 10 10 10 10-4.48 10-10S17.52 2 12 2zm0 4c1.93 0 3.5 1.57 3.5 3.5S13.93 13 12 13s-3.5-1.57-3.5-3.5S10.07 6 12 6zm0 14c-2.03 0-4.43-.82-6.14-2.88C7.55 15.8 9.68 15 12 15s4.45.8 6.14 2.12C16.43 19.18 14.03 20 12 20z"></path>
    </symbol>
    <symbol id="icon-personOutlined" viewBox="0 0 24 24">
      <path d="M12 2C6.48 2 2 6.48 2 12s4.48 10 10 10 10-4.48 10-10S17.52 2 12 2zM7.35 18.5C8.66 17.56 10.26 17 12 17s3.34.56 4.65 1.5c-1.31.94-2.91 1.5-4.65 1.5s-3.34-.56-4.65-1.5zm10.79-1.38C16.45 15.8 14.32 15 12 15s-4.45.8-6.14 2.12C4.7 15.73 4 13.95 4 12c0-4.42 3.58-8 8-8s8 3.58 8 8c0 1.95-.7 3.73-1.86 5.12z"></path>
      <path d="M12 6c-1.93 0-3.5 1.57-3.5 3.5S10.07 13 12 13s3.5-1.57 3.5-3.5S13.93 6 12 6zm0 5c-.83 0-1.5-.67-1.5-1.5S11.17 8 12 8s1.5.67 1.5 1.5S12.83 11 12 11z"></path>
    </symbol>
    <symbol id="icon-person2" viewBox="0 0 20 20">
      <path d="M0.5 2V16C0.5 17.1 1.39 18 2.5 18H16.5C17.6 18 18.5 17.1 18.5 16V2C18.5 0.9 17.6 0 16.5 0H2.5C1.39 0 0.5 0.9 0.5 2ZM12.5 6C12.5 7.66 11.16 9 9.5 9C7.84 9 6.5 7.66 6.5 6C6.5 4.34 7.84 3 9.5 3C11.16 3 12.5 4.34 12.5 6ZM3.5 14C3.5 12 7.5 10.9 9.5 10.9C11.5 10.9 15.5 12 15.5 14V15H3.5V14Z"/>
    </symbol>
    <symbol id="icon-lock" viewBox="0 0 17 21">
      <path d="M14.5 7H13.5V5C13.5 2.24 11.26 0 8.5 0C5.74 0 3.5 2.24 3.5 5V7H2.5C1.4 7 0.5 7.9 0.5 9V19C0.5 20.1 1.4 21 2.5 21H14.5C15.6 21 16.5 20.1 16.5 19V9C16.5 7.9 15.6 7 14.5 7ZM8.5 16C7.4 16 6.5 15.1 6.5 14C6.5 12.9 7.4 12 8.5 12C9.6 12 10.5 12.9 10.5 14C10.5 15.1 9.6 16 8.5 16ZM11.6 7H5.4V5C5.4 3.29 6.79 1.9 8.5 1.9C10.21 1.9 11.6 3.29 11.6 5V7Z" />
    </symbol>
    <symbol id="icon-logOut" viewBox="0 0 24 24">
      <path d="M3.984 5.016v13.969h8.016v2.016h-8.016q-0.797 0-1.383-0.609t-0.586-1.406v-13.969q0-0.797 0.586-1.406t1.383-0.609h8.016v2.016h-8.016zM17.016 6.984l4.969 5.016-4.969 5.016-1.406-1.453 2.578-2.578h-10.172v-1.969h10.172l-2.578-2.625z"></path>
    </symbol>
    <symbol id="icon-signUp" viewBox="0 0 24 24">
      <path d="M18 9V7h-2V2.84C14.77 2.3 13.42 2 11.99 2 6.47 2 2 6.48 2 12s4.47 10 9.99 10C17.52 22 22 17.52 22 12c0-1.05-.17-2.05-.47-3H18zm-2.5-1c.83 0 1.5.67 1.5 1.5s-.67 1.5-1.5 1.5-1.5-.67-1.5-1.5.67-1.5 1.5-1.5zm-7 0c.83 0 1.5.67 1.5 1.5S9.33 11 8.5 11 7 10.33 7 9.5 7.67 8 8.5 8zm3.5 9.5c-2.33 0-4.31-1.46-5.11-3.5h10.22c-.8 2.04-2.78 3.5-5.11 3.5zM22 3h2v2h-2v2h-2V5h-2V3h2V1h2v2z"></path>
    </symbol>
    <symbol id="icon-signIn" viewBox="0 0 24 24">
      <path d="M18 11c.7 0 1.37.1 2 .29V10c0-1.1-.9-2-2-2h-1V6c0-2.76-2.24-5-5-5S7 3.24 7 6v2H6c-1.1 0-2 .9-2 2v10c0 1.1.9 2 2 2h6.26c-.79-1.13-1.26-2.51-1.26-4 0-3.87 3.13-7 7-7zM8.9 6c0-1.71 1.39-3.1 3.1-3.1s3.1 1.39 3.1 3.1v2H8.9V6z"></path>
      <path d="M18 13c-2.76 0-5 2.24-5 5s2.24 5 5 5 5-2.24 5-5-2.24-5-5-5zm0 2c.83 0 1.5.67 1.5 1.5S18.83 18 18 18s-1.5-.67-1.5-1.5.67-1.5 1.5-1.5zm0 6c-1.03 0-1.94-.52-2.48-1.32.73-.42 1.57-.68 2.48-.68s1.75.26 2.48.68c-.54.8-1.45 1.32-2.48 1.32z"></path>
    </symbol>
    <symbol id="icon-dollar" viewBox="0 0 16 28">
      <path d="M15.281 18.516c0 3.187-2.281 5.703-5.594 6.25v2.734c0 0.281-0.219 0.5-0.5 0.5h-2.109c-0.266 0-0.5-0.219-0.5-0.5v-2.734c-3.656-0.516-5.656-2.703-5.734-2.797-0.156-0.187-0.172-0.453-0.031-0.641l1.609-2.109c0.078-0.109 0.219-0.172 0.359-0.187s0.281 0.031 0.375 0.141c0.031 0.016 2.219 2.109 4.984 2.109 1.531 0 3.187-0.812 3.187-2.578 0-1.5-1.844-2.234-3.953-3.078-2.812-1.109-6.312-2.516-6.312-6.438 0-2.875 2.25-5.25 5.516-5.875v-2.812c0-0.281 0.234-0.5 0.5-0.5h2.109c0.281 0 0.5 0.219 0.5 0.5v2.75c3.172 0.359 4.859 2.078 4.922 2.141 0.156 0.172 0.187 0.406 0.078 0.594l-1.266 2.281c-0.078 0.141-0.203 0.234-0.359 0.25-0.156 0.031-0.297-0.016-0.422-0.109-0.016-0.016-1.906-1.687-4.25-1.687-1.984 0-3.359 0.984-3.359 2.406 0 1.656 1.906 2.391 4.125 3.25 2.875 1.109 6.125 2.375 6.125 6.141z"></path>
    </symbol>
    <symbol id="icon-mail" viewBox="0 0 32 32">
      <path d="M7.077 10.923l0.808-0.808 8.615 7.385 8.615-7.385 0.808 0.808-9.423 8.077-9.423-8.077zM6.004 8c-1.107 0-2.004 0.895-2.004 1.994v12.012c0 1.101 0.89 1.994 2.004 1.994h20.993c1.107 0 2.004-0.895 2.004-1.994v-12.012c0-1.101-0.89-1.994-2.004-1.994h-20.993z"></path>
    </symbol>
    <symbol id="icon-feadback" viewBox="0 0 24 24">
      <path d="M9 4v1.38c-.83-.33-1.72-.5-2.61-.5-1.79 0-3.58.68-4.95 2.05l3.33 3.33h1.11v1.11c.86.86 1.98 1.31 3.11 1.36V15H6v3c0 1.1.9 2 2 2h10c1.66 0 3-1.34 3-3V4H9zm-1.11 6.41V8.26H5.61L4.57 7.22a5.07 5.07 0 0 1 1.82-.34c1.34 0 2.59.52 3.54 1.46l1.41 1.41-.2.2c-.51.51-1.19.8-1.92.8-.47 0-.93-.12-1.33-.34zM19 17c0 .55-.45 1-1 1s-1-.45-1-1v-2h-6v-2.59c.57-.23 1.1-.57 1.56-1.03l.2-.2L15.59 14H17v-1.41l-6-5.97V6h8v11z"></path>
    </symbol>
    <symbol id="icon-visibilityOff" viewBox="0 0 24 24">
      <path d="M12 7c2.76 0 5 2.24 5 5 0 .65-.13 1.26-.36 1.83l2.92 2.92c1.51-1.26 2.7-2.89 3.43-4.75-1.73-4.39-6-7.5-11-7.5-1.4 0-2.74.25-3.98.7l2.16 2.16C10.74 7.13 11.35 7 12 7zM2 4.27l2.28 2.28.46.46C3.08 8.3 1.78 10.02 1 12c1.73 4.39 6 7.5 11 7.5 1.55 0 3.03-.3 4.38-.84l.42.42L19.73 22 21 20.73 3.27 3 2 4.27zM7.53 9.8l1.55 1.55c-.05.21-.08.43-.08.65 0 1.66 1.34 3 3 3 .22 0 .44-.03.65-.08l1.55 1.55c-.67.33-1.41.53-2.2.53-2.76 0-5-2.24-5-5 0-.79.2-1.53.53-2.2zm4.31-.78 3.15 3.15.02-.16c0-1.66-1.34-3-3-3l-.17.01z"></path>
    </symbol>
    <symbol id="icon-visibilityOn" viewBox="0 0 24 24">
      <path d="M12 4.5C7 4.5 2.73 7.61 1 12c1.73 4.39 6 7.5 11 7.5s9.27-3.11 11-7.5c-1.73-4.39-6-7.5-11-7.5zM12 17c-2.76 0-5-2.24-5-5s2.24-5 5-5 5 2.24 5 5-2.24 5-5 5zm0-8c-1.66 0-3 1.34-3 3s1.34 3 3 3 3-1.34 3-3-1.34-3-3-3z"></path>
    </symbol>
    <symbol id="icon-menuBurger" viewBox="0 0 24 24">
      <path d="M4 8h4V4H4v4zm6 12h4v-4h-4v4zm-6 0h4v-4H4v4zm0-6h4v-4H4v4zm6 0h4v-4h-4v4zm6-10v4h4V4h-4zm-6 4h4V4h-4v4zm6 6h4v-4h-4v4zm0 6h4v-4h-4v4z"></path>
    </symbol>
    <symbol id="icon-admin" viewBox="0 0 24 24">
      <path d="M17 11c.34 0 .67.04 1 .09V6.27L10.5 3 3 6.27v4.91c0 4.54 3.2 8.79 7.5 9.82.55-.13 1.08-.32 1.6-.55-.69-.98-1.1-2.17-1.1-3.45 0-3.31 2.69-6 6-6z"></path>
      <path d="M17 13c-2.21 0-4 1.79-4 4s1.79 4 4 4 4-1.79 4-4-1.79-4-4-4zm0 1.38c.62 0 1.12.51 1.12 1.12s-.51 1.12-1.12 1.12-1.12-.51-1.12-1.12.5-1.12 1.12-1.12zm0 5.37c-.93 0-1.74-.46-2.24-1.17.05-.72 1.51-1.08 2.24-1.08s2.19.36 2.24 1.08c-.5.71-1.31 1.17-2.24 1.17z"></path>
    </symbol>
    <symbol id="icon-search" viewBox="0 0 24 24">
      <path d="M15.5 14h-.79l-.28-.27C15.41 12.59 16 11.11 16 9.5 16 5.91 13.09 3 9.5 3S3 5.91 3 9.5 5.91 16 9.5 16c1.61 0 3.09-.59 4.23-1.57l.27.28v.79l5 4.99L20.49 19l-4.99-5zm-6 0C7.01 14 5 11.99 5 9.5S7.01 5 9.5 5 14 7.01 14 9.5 11.99 14 9.5 14z"></path>
    </symbol>
    <symbol id="icon-filterOn" viewBox="0 0 24 24">
      <path d="M10 18h4v-2h-4v2zM3 6v2h18V6H3zm3 7h12v-2H6v2z"></path>
    </symbol>
    <symbol id="icon-filterOff" viewBox="0 0 24 24">
      <path d="M10.83 8H21V6H8.83l2 2zm5 5H18v-2h-4.17l2 2zM14 16.83V18h-4v-2h3.17l-3-3H6v-2h2.17l-3-3H3V6h.17L1.39 4.22 2.8 2.81l18.38 18.38-1.41 1.41L14 16.83z"></path>
    </symbol>
    <symbol id="icon-sort" viewBox="0 0 24 24">
      <path d="M3 18h6v-2H3v2zM3 6v2h18V6H3zm0 7h12v-2H3v2z"></path>
    </symbol>
    <symbol id="icon-list" viewBox="0 0 24 24">
      <path d="M19 5v14H5V5h14m1.1-2H3.9c-.5 0-.9.4-.9.9v16.2c0 .4.4.9.9.9h16.2c.4 0 .9-.5.9-.9V3.9c0-.5-.5-.9-.9-.9zM11 7h6v2h-6V7zm0 4h6v2h-6v-2zm0 4h6v2h-6zM7 7h2v2H7zm0 4h2v2H7zm0 4h2v2H7z"></path>
    </symbol>
    <symbol id="icon-ttn" viewBox="0 0 24 24">
      <path d="M20 8h-3V4H3c-1.1 0-2 .9-2 2v11h2c0 1.66 1.34 3 3 3s3-1.34 3-3h6c0 1.66 1.34 3 3 3s3-1.34 3-3h2v-5l-3-4zM6 18.5c-.83 0-1.5-.67-1.5-1.5s.67-1.5 1.5-1.5 1.5.67 1.5 1.5-.67 1.5-1.5 1.5zm13.5-9 1.96 2.5H17V9.5h2.5zm-1.5 9c-.83 0-1.5-.67-1.5-1.5s.67-1.5 1.5-1.5 1.5.67 1.5 1.5-.67 1.5-1.5 1.5z"></path>
    </symbol>
    <symbol id="icon-feed" viewBox="0 0 24 24">
      <path d="M16 3H5c-1.1 0-2 .9-2 2v14c0 1.1.9 2 2 2h14c1.1 0 2-.9 2-2V8l-5-5zM7 7h5v2H7V7zm10 10H7v-2h10v2zm0-4H7v-2h10v2zm-2-4V5l4 4h-4z"></path>
    </symbol>
    <symbol id="icon-info" viewBox="0 0 24 24">
      <path d="M11 7h2v2h-2zm0 4h2v6h-2zm1-9C6.48 2 2 6.48 2 12s4.48 10 10 10 10-4.48 10-10S17.52 2 12 2zm0 18c-4.41 0-8-3.59-8-8s3.59-8 8-8 8 3.59 8 8-3.59 8-8 8z"></path>
    </symbol>
    <symbol id="icon-qrCodeScan" viewBox="0 0 24 24">
      <path d="M9.5 6.5v3h-3v-3h3M11 5H5v6h6V5zm-1.5 9.5v3h-3v-3h3M11 13H5v6h6v-6zm6.5-6.5v3h-3v-3h3M19 5h-6v6h6V5zm-6 8h1.5v1.5H13V13zm1.5 1.5H16V16h-1.5v-1.5zM16 13h1.5v1.5H16V13zm-3 3h1.5v1.5H13V16zm1.5 1.5H16V19h-1.5v-1.5zM16 16h1.5v1.5H16V16zm1.5-1.5H19V16h-1.5v-1.5zm0 3H19V19h-1.5v-1.5zM22 7h-2V4h-3V2h5v5zm0 15v-5h-2v3h-3v2h5zM2 22h5v-2H4v-3H2v5zM2 2v5h2V4h3V2H2z"></path>
    </symbol>
    <symbol id="icon-storage" viewBox="0 0 24 24">
      <path d="M22 21V7L12 3 2 7v14h5v-9h10v9h5zm-11-2H9v2h2v-2zm2-3h-2v2h2v-2zm2 3h-2v2h2v-2z"></path>
    </symbol>
    <symbol id="icon-refund" viewBox="0 0 24 24">
      <path d="M19 3h-4.18C14.4 1.84 13.3 1 12 1c-1.3 0-2.4.84-2.82 2H5c-1.1 0-2 .9-2 2v14c0 1.1.9 2 2 2h14c1.1 0 2-.9 2-2V5c0-1.1-.9-2-2-2zm-7 0c.55 0 1 .45 1 1s-.45 1-1 1-1-.45-1-1 .45-1 1-1zm4 12h-4v3l-5-5 5-5v3h4v4z"></path>
    </symbol>
    <symbol id="icon-change" viewBox="0 0 24 24">
      <path d="M3 12c0 2.21.91 4.2 2.36 5.64L3 20h6v-6l-2.24 2.24C5.68 15.15 5 13.66 5 12c0-2.61 1.67-4.83 4-5.65V4.26C5.55 5.15 3 8.27 3 12zm8 5h2v-2h-2v2zM21 4h-6v6l2.24-2.24C18.32 8.85 19 10.34 19 12c0 2.61-1.67 4.83-4 5.65v2.09c3.45-.89 6-4.01 6-7.74 0-2.21-.91-4.2-2.36-5.64L21 4zm-10 9h2V7h-2v6z"></path>
    </symbol>
    <symbol id="icon-addtoCart" viewBox="0 0 24 24">
      <path d="M11 9h2V6h3V4h-3V1h-2v3H8v2h3v3zm-4 9c-1.1 0-1.99.9-1.99 2S5.9 22 7 22s2-.9 2-2-.9-2-2-2zm10 0c-1.1 0-1.99.9-1.99 2s.89 2 1.99 2 2-.9 2-2-.9-2-2-2zm-9.83-3.25.03-.12.9-1.63h7.45c.75 0 1.41-.41 1.75-1.03l3.86-7.01L19.42 4h-.01l-1.1 2-2.76 5H8.53l-.13-.27L6.16 6l-.95-2-.94-2H1v2h2l3.6 7.59-1.35 2.45c-.16.28-.25.61-.25.96 0 1.1.9 2 2 2h12v-2H7.42c-.13 0-.25-.11-.25-.25z"></path>
    </symbol>
    <symbol id="icon-inspect" viewBox="0 0 24 24">
      <path fill-rule="evenodd" d="m14.05 17.58-.01.01-2.4-2.4 1.06-1.06 1.35 1.35L16.54 13l1.06 1.06-3.54 3.54-.01-.02zM12 2C6.5 2 2 6.5 2 12s4.5 10 10 10 10-4.5 10-10S17.5 2 12 2zM7.34 6.28l1.41 1.41 1.41-1.41 1.06 1.06-1.41 1.41 1.41 1.41-1.06 1.06-1.41-1.41-1.41 1.41-1.06-1.06 1.41-1.41-1.41-1.41 1.06-1.06zM12 20c-2.2 0-4.2-.9-5.7-2.3L17.7 6.3C19.1 7.8 20 9.8 20 12c0 4.4-3.6 8-8 8z"></path>
    </symbol>
    <symbol id="icon-actionsH" viewBox="0 0 24 24">
      <path d="M6 10c-1.1 0-2 .9-2 2s.9 2 2 2 2-.9 2-2-.9-2-2-2zm12 0c-1.1 0-2 .9-2 2s.9 2 2 2 2-.9 2-2-.9-2-2-2zm-6 0c-1.1 0-2 .9-2 2s.9 2 2 2 2-.9 2-2-.9-2-2-2z"></path>
    </symbol>
    <symbol id="icon-actionsV" viewBox="0 0 24 24">
      <path d="M12 8c1.1 0 2-.9 2-2s-.9-2-2-2-2 .9-2 2 .9 2 2 2zm0 2c-1.1 0-2 .9-2 2s.9 2 2 2 2-.9 2-2-.9-2-2-2zm0 6c-1.1 0-2 .9-2 2s.9 2 2 2 2-.9 2-2-.9-2-2-2z"></path>
    </symbol>
    <symbol id="icon-refresh" viewBox="0 0 24 24">
      <path d="M17.65 6.35C16.2 4.9 14.21 4 12 4c-4.42 0-7.99 3.58-7.99 8s3.57 8 7.99 8c3.73 0 6.84-2.55 7.73-6h-2.08c-.82 2.33-3.04 4-5.65 4-3.31 0-6-2.69-6-6s2.69-6 6-6c1.66 0 3.14.69 4.22 1.78L13 11h7V4l-2.35 2.35z"></path>
    </symbol>
    <symbol id="icon-chat" viewBox="0 0 24 24">
      <path d="M20 2H4c-1.1 0-2 .9-2 2v18l4-4h14c1.1 0 2-.9 2-2V4c0-1.1-.9-2-2-2z"></path>
    </symbol>
    <symbol id="icon-chatNew" viewBox="0 0 24 24">
      <path d="M22 6.98V16c0 1.1-.9 2-2 2H6l-4 4V4c0-1.1.9-2 2-2h10.1c-.06.32-.1.66-.1 1 0 2.76 2.24 5 5 5 1.13 0 2.16-.39 3-1.02zM16 3c0 1.66 1.34 3 3 3s3-1.34 3-3-1.34-3-3-3-3 1.34-3 3z"></path>
    </symbol>
    <symbol id="icon-print" viewBox="0 0 24 24">
      <path d="M19 8H5c-1.66 0-3 1.34-3 3v6h4v4h12v-4h4v-6c0-1.66-1.34-3-3-3zm-3 11H8v-5h8v5zm3-7c-.55 0-1-.45-1-1s.45-1 1-1 1 .45 1 1-.45 1-1 1zm-1-9H6v4h12V3z"></path>
    </symbol>
    <symbol id="icon-upload" viewBox="0 0 24 24">
      <path d="M9 16h6v-6h4l-7-7-7 7h4zm-4 2h14v2H5z"></path>
    </symbol>
    <symbol id="icon-download" viewBox="0 0 24 24">
      <path d="M5 20h14v-2H5v2zM19 9h-4V3H9v6H5l7 7 7-7z"></path>
    </symbol>
    <symbol id="icon-edit" viewBox="0 0 24 24">
      <path d="M3 17.25V21h3.75L17.81 9.94l-3.75-3.75L3 17.25zM20.71 7.04c.39-.39.39-1.02 0-1.41l-2.34-2.34a.9959.9959 0 0 0-1.41 0l-1.83 1.83 3.75 3.75 1.83-1.83z"></path>
    </symbol>
    <symbol id="icon-delete" viewBox="0 0 24 24">
      <path d="M6 19c0 1.1.9 2 2 2h8c1.1 0 2-.9 2-2V7H6v12zM8 9h8v10H8V9zm7.5-5-1-1h-5l-1 1H5v2h14V4z"></path>
    </symbol>
    <symbol id="icon-done" viewBox="0 0 24 24">
      <path d="M9 16.2 4.8 12l-1.4 1.4L9 19 21 7l-1.4-1.4L9 16.2z"></path>
    </symbol>
    <symbol id="icon-clear" viewBox="0 0 24 24">
      <path d="M12 2C6.48 2 2 6.48 2 12s4.48 10 10 10 10-4.48 10-10S17.52 2 12 2zM4 12c0-4.42 3.58-8 8-8 1.85 0 3.55.63 4.9 1.69L5.69 16.9C4.63 15.55 4 13.85 4 12zm8 8c-1.85 0-3.55-.63-4.9-1.69L18.31 7.1C19.37 8.45 20 10.15 20 12c0 4.42-3.58 8-8 8z"></path>
    </symbol>
    <symbol id="icon-doneAll" viewBox="0 0 24 24">
      <path d="m18 7-1.41-1.41-6.34 6.34 1.41 1.41L18 7zm4.24-1.41L11.66 16.17 7.48 12l-1.41 1.41L11.66 19l12-12-1.42-1.41zM.41 13.41 6 19l1.41-1.41L1.83 12 .41 13.41z"></path>
    </symbol>
    <symbol id="icon-removeDone" viewBox="0 0 24 24">
      <path d="m1.79 12 5.58 5.59L5.96 19 .37 13.41 1.79 12zm.45-7.78L12.9 14.89l-1.28 1.28L7.44 12l-1.41 1.41L11.62 19l2.69-2.69 4.89 4.89 1.41-1.41L3.65 2.81 2.24 4.22zm14.9 9.27L23.62 7 22.2 5.59l-6.48 6.48 1.42 1.42zM17.96 7l-1.41-1.41-3.65 3.66 1.41 1.41L17.96 7z"></path>
    </symbol>
    <!-- <symbol id="icon-darkMode" viewBox="0 0 24 24">
      <path d="M12 3c-4.97 0-9 4.03-9 9s4.03 9 9 9 9-4.03 9-9c0-.46-.04-.92-.1-1.36-.98 1.37-2.58 2.26-4.4 2.26-2.98 0-5.4-2.42-5.4-5.4 0-1.81.89-3.42 2.26-4.4-.44-.06-.9-.1-1.36-.1z"></path>
    </symbol> -->
    <svg id="icon-darkMode" viewBox="0 0 15 8">
      <path d="M3.99999 0H10.6667C12.8733 0 14.6667 1.79333 14.6667 4C14.6667 6.20667 12.8733 8 10.6667 8H3.99999C1.79332 8 -1.33514e-05 6.20667 -1.33514e-05 4C-1.33514e-05 1.79333 1.79332 0 3.99999 0ZM3.99999 6.66667H10.6667C12.14 6.66667 13.3333 5.47333 13.3333 4C13.3333 2.52667 12.14 1.33333 10.6667 1.33333H3.99999C2.52665 1.33333 1.33332 2.52667 1.33332 4C1.33332 5.47333 2.52665 6.66667 3.99999 6.66667ZM3.99999 2C5.10665 2 5.99999 2.89333 5.99999 4C5.99999 5.10667 5.10665 6 3.99999 6C2.89332 6 1.99999 5.10667 1.99999 4C1.99999 2.89333 2.89332 2 3.99999 2Z"/>
    </svg>
    <symbol id="icon-lightMode" viewBox="0 0 15 8">
      <path d="M10.6667 0H4C1.79333 0 0 1.79333 0 4C0 6.20667 1.79333 8 4 8H10.6667C12.8733 8 14.6667 6.20667 14.6667 4C14.6667 1.79333 12.8733 0 10.6667 0ZM10.6667 6.66667H4C2.52667 6.66667 1.33333 5.47333 1.33333 4C1.33333 2.52667 2.52667 1.33333 4 1.33333H10.6667C12.14 1.33333 13.3333 2.52667 13.3333 4C13.3333 5.47333 12.14 6.66667 10.6667 6.66667ZM10.6667 2C9.56 2 8.66667 2.89333 8.66667 4C8.66667 5.10667 9.56 6 10.6667 6C11.7733 6 12.6667 5.10667 12.6667 4C12.6667 2.89333 11.7733 2 10.6667 2Z" />
    </symbol>
    <!-- <symbol id="icon-lightMode" viewBox="0 0 24 24">
      <path d="M12 7c-2.76 0-5 2.24-5 5s2.24 5 5 5 5-2.24 5-5-2.24-5-5-5zM2 13h2c.55 0 1-.45 1-1s-.45-1-1-1H2c-.55 0-1 .45-1 1s.45 1 1 1zm18 0h2c.55 0 1-.45 1-1s-.45-1-1-1h-2c-.55 0-1 .45-1 1s.45 1 1 1zM11 2v2c0 .55.45 1 1 1s1-.45 1-1V2c0-.55-.45-1-1-1s-1 .45-1 1zm0 18v2c0 .55.45 1 1 1s1-.45 1-1v-2c0-.55-.45-1-1-1s-1 .45-1 1zM5.99 4.58c-.39-.39-1.03-.39-1.41 0-.39.39-.39 1.03 0 1.41l1.06 1.06c.39.39 1.03.39 1.41 0s.39-1.03 0-1.41L5.99 4.58zm12.37 12.37c-.39-.39-1.03-.39-1.41 0-.39.39-.39 1.03 0 1.41l1.06 1.06c.39.39 1.03.39 1.41 0 .39-.39.39-1.03 0-1.41l-1.06-1.06zm1.06-10.96c.39-.39.39-1.03 0-1.41-.39-.39-1.03-.39-1.41 0l-1.06 1.06c-.39.39-.39 1.03 0 1.41s1.03.39 1.41 0l1.06-1.06zM7.05 18.36c.39-.39.39-1.03 0-1.41-.39-.39-1.03-.39-1.41 0l-1.06 1.06c-.39.39-.39 1.03 0 1.41s1.03.39 1.41 0l1.06-1.06z"></path>
    </symbol> -->
    <symbol id="icon-notifications" viewBox="0 0 24 24">
      <path d="M12 22c1.1 0 2-.9 2-2h-4c0 1.1.89 2 2 2zm6-6v-5c0-3.07-1.64-5.64-4.5-6.32V4c0-.83-.67-1.5-1.5-1.5s-1.5.67-1.5 1.5v.68C7.63 5.36 6 7.92 6 11v5l-2 2v1h16v-1l-2-2z"></path>
    </symbol>
    <symbol id="icon-error" viewBox="0 0 24 24">
      <path d="M11 15h2v2h-2zm0-8h2v6h-2zm.99-5C6.47 2 2 6.48 2 12s4.47 10 9.99 10C17.52 22 22 17.52 22 12S17.52 2 11.99 2zM12 20c-4.42 0-8-3.58-8-8s3.58-8 8-8 8 3.58 8 8-3.58 8-8 8z"></path>
    </symbol>
    <symbol id="icon-warning" viewBox="0 0 24 24">
      <path d="M12 5.99 19.53 19H4.47L12 5.99M12 2 1 21h22L12 2z"></path>
      <path d="M13 16h-2v2h2zm0-6h-2v5h2z"></path>
    </symbol>
    <symbol id="icon-primary" viewBox="0 0 24 24">
      <path d="M11 15h2v2h-2zm0-8h2v6h-2zm.99-5C6.47 2 2 6.48 2 12s4.47 10 9.99 10C17.52 22 22 17.52 22 12S17.52 2 11.99 2zM12 20c-4.42 0-8-3.58-8-8s3.58-8 8-8 8 3.58 8 8-3.58 8-8 8z"></path>
    </symbol>
    <symbol id="icon-success" viewBox="0 0 24 24">
      <path d="M16.59 7.58 10 14.17l-3.59-3.58L5 12l5 5 8-8zM12 2C6.48 2 2 6.48 2 12s4.48 10 10 10 10-4.48 10-10S17.52 2 12 2zm0 18c-4.42 0-8-3.58-8-8s3.58-8 8-8 8 3.58 8 8-3.58 8-8 8z"></path>
    </symbol>
    <symbol id="icon-burger" viewBox="0 0 24 24">
      <path d="M3 18h18v-2H3v2zm0-5h18v-2H3v2zm0-7v2h18V6H3z"></path>
    </symbol>
    <symbol id="icon-burgerOpen" viewBox="0 0 24 24">
      <path d="M3 18h13v-2H3v2zm0-5h10v-2H3v2zm0-7v2h13V6H3zm18 9.59L17.42 12 21 8.41 19.59 7l-5 5 5 5L21 15.59z"></path>
    </symbol>
    <symbol id="icon-folder" viewBox="0 0 24 24">
      <path d="M20 6h-8l-2-2H4c-1.1 0-1.99.9-1.99 2L2 18c0 1.1.9 2 2 2h16c1.1 0 2-.9 2-2V8c0-1.1-.9-2-2-2zm0 12H4V8h16v10z"></path>
    </symbol>
    <symbol id="icon-setProfile" viewBox="0 0 24 24">
      <circle cx="10" cy="8" r="4"></circle>
      <path d="M10.67 13.02c-.22-.01-.44-.02-.67-.02-2.42 0-4.68.67-6.61 1.82-.88.52-1.39 1.5-1.39 2.53V20h9.26c-.79-1.13-1.26-2.51-1.26-4 0-1.07.25-2.07.67-2.98zM20.75 16c0-.22-.03-.42-.06-.63l1.14-1.01-1-1.73-1.45.49c-.32-.27-.68-.48-1.08-.63L18 11h-2l-.3 1.49c-.4.15-.76.36-1.08.63l-1.45-.49-1 1.73 1.14 1.01c-.03.21-.06.41-.06.63s.03.42.06.63l-1.14 1.01 1 1.73 1.45-.49c.32.27.68.48 1.08.63L16 21h2l.3-1.49c.4-.15.76-.36 1.08-.63l1.45.49 1-1.73-1.14-1.01c.03-.21.06-.41.06-.63zM17 18c-1.1 0-2-.9-2-2s.9-2 2-2 2 .9 2 2-.9 2-2 2z"></path>
    </symbol>
    <symbol id="icon-lockPerson" viewBox="0 0 24 24">
      <path d="M18 11c.7 0 1.37.1 2 .29V10c0-1.1-.9-2-2-2h-1V6c0-2.76-2.24-5-5-5S7 3.24 7 6v2H6c-1.1 0-2 .9-2 2v10c0 1.1.9 2 2 2h6.26c-.79-1.13-1.26-2.51-1.26-4 0-3.87 3.13-7 7-7zM8.9 6c0-1.71 1.39-3.1 3.1-3.1s3.1 1.39 3.1 3.1v2H8.9V6z"></path>
      <path d="M18 13c-2.76 0-5 2.24-5 5s2.24 5 5 5 5-2.24 5-5-2.24-5-5-5zm0 2c.83 0 1.5.67 1.5 1.5S18.83 18 18 18s-1.5-.67-1.5-1.5.67-1.5 1.5-1.5zm0 6c-1.03 0-1.94-.52-2.48-1.32.73-.42 1.57-.68 2.48-.68s1.75.26 2.48.68c-.54.8-1.45 1.32-2.48 1.32z"></path>
    </symbol>
    <symbol id="icon-brand" viewBox="0 0 24 24">
      <path d="m21.41 11.58-9-9C12.05 2.22 11.55 2 11 2H4c-1.1 0-2 .9-2 2v7c0 .55.22 1.05.59 1.42l9 9c.36.36.86.58 1.41.58.55 0 1.05-.22 1.41-.59l7-7c.37-.36.59-.86.59-1.41 0-.55-.23-1.06-.59-1.42zM5.5 7C4.67 7 4 6.33 4 5.5S4.67 4 5.5 4 7 4.67 7 5.5 6.33 7 5.5 7z"></path>
    </symbol>
    <symbol id="icon-checkBoxOn" viewBox="0 0 24 24">
      <path d="M19 3H5c-1.11 0-2 .9-2 2v14c0 1.1.89 2 2 2h14c1.11 0 2-.9 2-2V5c0-1.1-.89-2-2-2zm-9 14-5-5 1.41-1.41L10 14.17l7.59-7.59L19 8l-9 9z"></path>
    </symbol>
    <symbol id="icon-checkBoxOff" viewBox="0 0 24 24">
      <path d="M19 5v14H5V5h14m0-2H5c-1.1 0-2 .9-2 2v14c0 1.1.9 2 2 2h14c1.1 0 2-.9 2-2V5c0-1.1-.9-2-2-2z"></path>
    </symbol>
    <symbol id="icon-checkBoxMinus" viewBox="0 0 24 24">
      <path d="M19 3H5c-1.1 0-2 .9-2 2v14c0 1.1.9 2 2 2h14c1.1 0 2-.9 2-2V5c0-1.1-.9-2-2-2zm-2 10H7v-2h10v2z"></path>
    </symbol>
    <symbol id="icon-pageGrid-1" viewBox="0 0 24 24">
      <path d="M2 4v7h20V4H2zm8 16h12v-7H10v7zm-8 0h6v-7H2v7z"></path>
    </symbol>
    <symbol id="icon-pageGrid-2" viewBox="0 0 24 24">
      <path d="M16 20H2V4h14v16zm2-12h4V4h-4v4zm0 12h4v-4h-4v4zm0-6h4v-4h-4v4z"></path>
    </symbol>
    <symbol id="icon-gallery" viewBox="0 0 24 24">
      <path d="m15.96 10.29-2.75 3.54-1.96-2.36L8.5 15h11l-3.54-4.71zM3 5H1v16c0 1.1.9 2 2 2h16v-2H3V5zm18-4H7c-1.1 0-2 .9-2 2v14c0 1.1.9 2 2 2h14c1.1 0 2-.9 2-2V3c0-1.1-.9-2-2-2zm0 16H7V3h14v14z"></path>
    </symbol>
    <symbol id="icon-time" viewBox="0 0 24 24">
      <path d="M11.99 2C6.47 2 2 6.48 2 12s4.47 10 9.99 10C17.52 22 22 17.52 22 12S17.52 2 11.99 2zM12 20c-4.42 0-8-3.58-8-8s3.58-8 8-8 8 3.58 8 8-3.58 8-8 8z"></path>
      <path d="M12.5 7H11v6l5.25 3.15.75-1.23-4.5-2.67z"></path>
    </symbol>
    <symbol id="icon-bank" viewBox="0 0 24 24">
      <path d="M4 10h3v7H4zm6.5 0h3v7h-3zM2 19h20v3H2zm15-9h3v7h-3zm-5-9L2 6v2h20V6z"></path>
    </symbol>
    <symbol id="icon-receipt" viewBox="0 0 24 24">
      <path d="M18 17H6v-2h12v2zm0-4H6v-2h12v2zm0-4H6V7h12v2zM3 22l1.5-1.5L6 22l1.5-1.5L9 22l1.5-1.5L12 22l1.5-1.5L15 22l1.5-1.5L18 22l1.5-1.5L21 22V2l-1.5 1.5L18 2l-1.5 1.5L15 2l-1.5 1.5L12 2l-1.5 1.5L9 2 7.5 3.5 6 2 4.5 3.5 3 2v20z"></path>
    </symbol>
    <symbol id="icon-archive" viewBox="0 0 24 24">
      <path d="m20.54 5.23-1.39-1.68C18.88 3.21 18.47 3 18 3H6c-.47 0-.88.21-1.16.55L3.46 5.23C3.17 5.57 3 6.02 3 6.5V19c0 1.1.9 2 2 2h14c1.1 0 2-.9 2-2V6.5c0-.48-.17-.93-.46-1.27zM12 17.5 6.5 12H10v-2h4v2h3.5L12 17.5zM5.12 5l.81-1h12l.94 1H5.12z"></path>
    </symbol>
    <symbol id="icon-unArchive" viewBox="0 0 24 24">
      <path d="m20.55 5.22-1.39-1.68C18.88 3.21 18.47 3 18 3H6c-.47 0-.88.21-1.15.55L3.46 5.22C3.17 5.57 3 6.01 3 6.5V19c0 1.1.89 2 2 2h14c1.1 0 2-.9 2-2V6.5c0-.49-.17-.93-.45-1.28zM12 9.5l5.5 5.5H14v2h-4v-2H6.5L12 9.5zM5.12 5l.82-1h12l.93 1H5.12z"></path>
    </symbol>
    <symbol id="icon-dblArrowRight" viewBox="0 0 24 24">
      <path d="M15.5 5H11l5 7-5 7h4.5l5-7z"></path>
      <path d="M8.5 5H4l5 7-5 7h4.5l5-7z"></path>
    </symbol>
    <symbol id="icon-openInNew" viewBox="0 0 24 24">
      <path d="M19 19H5V5h7V3H5c-1.11 0-2 .9-2 2v14c0 1.1.89 2 2 2h14c1.1 0 2-.9 2-2v-7h-2v7zM14 3v2h3.59l-9.83 9.83 1.41 1.41L19 6.41V10h2V3h-7z"></path>
    </symbol>
    <symbol id="icon-boockMarAdd" viewBox="0 0 24 24">
      <path d="M21 7h-2v2h-2V7h-2V5h2V3h2v2h2v2zm-2 14-7-3-7 3V5c0-1.1.9-2 2-2h7c-.63.84-1 1.87-1 3 0 2.76 2.24 5 5 5 .34 0 .68-.03 1-.1V21z"></path>
    </symbol>
    <symbol id="icon-new" viewBox="0 0 24 24">
   </symbol>
  </defs>
</svg>